# xmcd
#
# Track frame offsets:
# 150
# 13072
# 26424
# 37615
# 50878
# 63728
# 77660
# 88456
# 101133
# 112374
# 124913
# 137641
# 150599
# 166222
# 176623
# 193788
# 205481
#
# Disc length: 2863 seconds
#
#
# Revision: 0
# Processed by: cddbd v1.5.2PL0 Copyright (c) Steve Scherf et al.
# Submitted via: FreeRIP 2.945 
#
DISCID=f50b2d11
DTITLE=TOR - outlaw country
DYEAR=2002
DGENRE=Blues
TTITLE0=above and beyond
TTITLE1=cocaine blues
TTITLE2=life to go
TTITLE3=give it to me
TTITLE4=smokin cigarettes and drinkin coffee blues
TTITLE5=i fought the law
TTITLE6=my shoes keep walking back to you
TTITLE7=solitary man
TTITLE8=send a picture of mother
TTITLE9=i have to settle down
TTITLE10=fools like me
TTITLE11=lost highway
TTITLE12=cant help falling in love
TTITLE13=honky tonk man
TTITLE14=can the circle be unbroken (bye and bye)
TTITLE15=singin the blues
TTITLE16=merry christmas
EXTD=
EXTT0=
EXTT1=
EXTT2=
EXTT3=
EXTT4=
EXTT5=
EXTT6=
EXTT7=
EXTT8=
EXTT9=
EXTT10=
EXTT11=
EXTT12=
EXTT13=
EXTT14=
EXTT15=
EXTT16=
PLAYORDER=
